REM DIRINDEX 1
REM DIRNAME folder01
TITLE ""
FILE "Disk1Track47.mp3" MP3
  TRACK 01 AUDIO
    TITLE "1:cjc069_0332"
    INDEX 01 00:00:00
  TRACK 02 AUDIO
    TITLE "1:cjc069_0333"
    INDEX 01 00:09:16
  TRACK 03 AUDIO
    TITLE "1:cjc069_0334"
    INDEX 01 00:15:28
  TRACK 04 AUDIO
    TITLE "0:"
    INDEX 01 00:30:03
